<?xml version="1.0" encoding="UTF-8"?>
<svg width="16px" height="16px" viewBox="0 0 16 16" version="1.1" xmlns="http://www.w3.org/2000/svg" xmlns:xlink="http://www.w3.org/1999/xlink">
    <!-- Generator: Sketch 46.2 (44496) - http://www.bohemiancoding.com/sketch -->
    <title>Social Icons/behance-icon</title>
    <desc>Created with Sketch.</desc>
    <defs></defs>
    <g id="Assets" stroke="none" stroke-width="1" fill="none" fill-rule="evenodd">
        <g id="Social-Icons/behance-icon" fill="#111111">
            <path d="M7.38505446,7.0711327 C7.70975556,6.64924646 7.87296243,6.12856371 7.84607499,5.60032801 C7.86112925,5.05739699 7.70187248,4.52357991 7.39087175,4.07451993 C6.75957652,3.32735029 5.79670539,2.93001156 4.81162912,3.01016878 L0,3.01016878 L0,13.0000686 L4.48731499,13.0000686 C4.95932636,13.003393 5.4304053,12.9583852 5.8929186,12.8657746 C6.30202535,12.786912 6.68687855,12.6157327 7.01711063,12.3657439 C7.30152641,12.151283 7.54062255,11.8843775 7.72100318,11.5799813 C8.01964944,11.1008353 8.17325108,10.5480636 8.16384466,9.9863119 C8.17983846,9.47217985 8.04505175,8.96436731 7.7755403,8.52336483 C7.50446015,8.11017972 7.09861331,7.79964369 6.6244433,7.6425964 C6.91592821,7.50654731 7.17506277,7.31185388 7.38505446,7.0711327 L7.38505446,7.0711327 Z M14.51,3 L10.51,3 L10.51,4 L14.51,4 L14.51,3 Z M15.9444751,8.21906041 C15.8714855,7.68954106 15.6775915,7.18307978 15.377289,6.73754077 C15.0784271,6.27556039 14.6505589,5.9078134 14.1447498,5.67818993 C13.617025,5.44876789 13.0449397,5.33446901 12.4679149,5.34316934 C11.5127063,5.30721233 10.5861454,5.66756322 9.91485009,6.33608752 C9.21373906,7.12232687 8.86046027,8.15060699 8.93318177,9.19340602 C8.83171778,10.2626874 9.23349019,11.3188575 10.0239244,12.0607251 C10.7276185,12.6397876 11.6190984,12.952229 12.5369953,12.9414936 C13.5441607,12.9975676 14.5254563,12.6156334 15.220222,11.8971437 C15.5842626,11.5484755 15.8261599,11.0952301 15.9110257,10.6027784 L14.0065891,10.6027784 C13.9142294,10.790111 13.784104,10.9570665 13.624102,11.0935228 C13.3305612,11.3225609 12.9623329,11.4390761 12.5878966,11.4214001 C12.2260568,11.4331651 11.868701,11.3399991 11.5604171,11.1535265 C11.0620054,10.8109018 10.779496,10.23937 10.813622,9.64271935 L16.0048295,9.64271935 C16.0205596,9.16735324 16.0003861,8.69149563 15.9444751,8.21906041 L15.9444751,8.21906041 Z M12.4679149,6.88612133 C12.8891255,6.86466714 13.3004973,7.01596719 13.6037956,7.3038914 C13.9070939,7.59181561 14.0750914,7.99051682 14.0676707,8.40478611 L10.8565245,8.40478611 C10.8984985,7.99265325 11.07296,7.6043525 11.3546303,7.29614654 C11.6498644,7.01075231 12.0544543,6.86174091 12.4679149,6.88612133 L12.4679149,6.88612133 Z M5.41444619,11.0913798 C5.09608316,11.2240424 4.75126007,11.2841214 4.40587288,11.2671049 L2.29710388,11.2671049 L2.29710388,8.60479841 L4.43714083,8.60479841 C4.77729041,8.59240369 5.11633384,8.64981951 5.43262523,8.7733802 C5.85358375,8.96249338 6.10718652,9.39202353 6.06525593,9.84487464 C6.12283675,10.3519892 5.86518406,10.8435609 5.41153754,11.0920942 L5.41444619,11.0913798 Z M4.40950869,6.94826801 L2.30073969,6.94826801 L2.30073969,4.74527544 L4.15500209,4.74527544 C4.55320297,4.73481249 4.95050803,4.78763966 5.33154975,4.90171363 C5.69526694,5.06136545 5.91138117,5.43448212 5.86528646,5.82319885 C5.90302351,6.16635064 5.74892229,6.50272432 5.46243886,6.70253862 C5.1410288,6.88056893 4.77522138,6.96644715 4.40660004,6.950411 L4.40950869,6.94826801 Z" id="Icon"></path>
        </g>
    </g>
</svg>