<?xml version="1.0" encoding="UTF-8"?>
<svg width="102px" height="18px" viewBox="0 0 102 18" version="1.1" xmlns="http://www.w3.org/2000/svg" xmlns:xlink="http://www.w3.org/1999/xlink">
    <!-- Generator: Sketch 46.2 (44496) - http://www.bohemiancoding.com/sketch -->
    <title>logo-white-bg</title>
    <desc>Created with Sketch.</desc>
    <defs></defs>
    <g id="Assets" stroke="none" stroke-width="1" fill="none" fill-rule="evenodd">
        <g id="Assets-(Light-BG)" transform="translate(-85.000000, -466.000000)">
            <g id="logo-white-bg" transform="translate(85.000000, 466.000000)">
                <path d="M51.5635,14 L49.5875,14 C49.3658322,14 49.1837507,13.9445839 49.04125,13.83375 C48.8987493,13.7229161 48.7958337,13.5851675 48.7325,13.4205 L47.7065,10.618 L42.016,10.618 L40.99,13.4205 C40.9393331,13.5661674 40.8395841,13.6991661 40.69075,13.8195 C40.5419159,13.9398339 40.3598344,14 40.1445,14 L38.159,14 L43.555,0.263 L46.1675,0.263 L51.5635,14 Z M42.6715,8.813 L47.051,8.813 L45.379,4.2435 C45.3029996,4.04083232 45.2190838,3.80175138 45.12725,3.52625 C45.0354162,3.25074862 44.9451671,2.95150161 44.8565,2.6285 C44.7678329,2.95150161 44.6807504,3.25233194 44.59525,3.531 C44.5097496,3.80966806 44.4258337,4.05349895 44.3435,4.2625 L42.6715,8.813 Z M56.2185,4.082 C56.6365021,4.082 57.0291648,4.12474957 57.3965,4.21025 C57.7638352,4.29575043 58.0994985,4.42083251 58.4035,4.5855 L61.206,4.5855 L61.206,5.4595 C61.206,5.60516739 61.1680004,5.71916625 61.092,5.8015 C61.0159996,5.88383374 60.8861676,5.94083317 60.7025,5.9725 L59.8285,6.134 C59.8918336,6.29866749 59.9409165,6.47283241 59.97575,6.6565 C60.0105835,6.84016758 60.028,7.03333232 60.028,7.236 C60.028,7.71733574 59.9314176,8.15274805 59.73825,8.54225 C59.5450824,8.93175195 59.279085,9.2626653 58.94025,9.535 C58.601415,9.80733469 58.1992523,10.0179159 57.73375,10.16675 C57.2682477,10.3155841 56.7631694,10.39 56.2185,10.39 C55.8511648,10.39 55.4933351,10.355167 55.145,10.2855 C54.8409985,10.4691676 54.689,10.6749989 54.689,10.903 C54.689,11.0993343 54.7792491,11.2434162 54.95975,11.33525 C55.1402509,11.4270838 55.3777485,11.4919998 55.67225,11.53 C55.9667515,11.5680002 56.3008315,11.59175 56.6745,11.60125 C57.0481685,11.61075 57.4313314,11.6313332 57.824,11.663 C58.2166686,11.6946668 58.5998315,11.7500829 58.9735,11.82925 C59.3471685,11.9084171 59.6812485,12.0334991 59.97575,12.2045 C60.2702515,12.3755009 60.5077491,12.6082485 60.68825,12.90275 C60.8687509,13.1972515 60.959,13.5756644 60.959,14.038 C60.959,14.4686688 60.8529177,14.8866646 60.64075,15.292 C60.4285823,15.6973354 60.1214187,16.0583317 59.71925,16.375 C59.3170813,16.6916682 58.8246696,16.9465824 58.242,17.13975 C57.6593304,17.3329176 56.9943371,17.4295 56.247,17.4295 C55.5059963,17.4295 54.8631694,17.3582507 54.3185,17.21575 C53.7738306,17.0732493 53.3225851,16.8832512 52.96475,16.64575 C52.6069149,16.4082488 52.3393342,16.1343349 52.162,15.824 C51.9846658,15.5136651 51.896,15.1906683 51.896,14.855 C51.896,14.3989977 52.0353319,14.0158349 52.314,13.7055 C52.5926681,13.3951651 52.9789975,13.1481676 53.473,12.9645 C53.2323321,12.8314993 53.0391674,12.6541678 52.8935,12.4325 C52.7478326,12.2108322 52.675,11.9226684 52.675,11.568 C52.675,11.4223326 52.7003331,11.2719174 52.751,11.11675 C52.8016669,10.9615826 52.8792495,10.8080008 52.98375,10.656 C53.0882505,10.5039992 53.2196659,10.3599173 53.378,10.22375 C53.5363341,10.0875827 53.7231656,9.9656672 53.9385,9.858 C53.4444975,9.59199867 53.0565847,9.23733555 52.77475,8.794 C52.4929153,8.35066445 52.352,7.83133631 52.352,7.236 C52.352,6.75466426 52.4485824,6.31925195 52.64175,5.92975 C52.8349176,5.54024805 53.1040816,5.20775138 53.44925,4.93225 C53.7944184,4.65674862 54.2029143,4.44616739 54.67475,4.3005 C55.1465857,4.1548326 55.6611639,4.082 56.2185,4.082 Z M58.793,14.437 C58.793,14.246999 58.7360006,14.0918339 58.622,13.9715 C58.5079994,13.8511661 58.3528343,13.7577503 58.1565,13.69125 C57.9601657,13.6247497 57.7305846,13.5756668 57.46775,13.544 C57.2049154,13.5123332 56.9262515,13.4885834 56.63175,13.47275 C56.3372485,13.4569166 56.0332516,13.4410834 55.71975,13.42525 C55.4062484,13.4094166 55.1038348,13.3825002 54.8125,13.3445 C54.5464987,13.4901674 54.3327508,13.662749 54.17125,13.86225 C54.0097492,14.061751 53.929,14.291332 53.929,14.551 C53.929,14.7220009 53.9717496,14.8819159 54.05725,15.03075 C54.1427504,15.1795841 54.2789157,15.3078328 54.46575,15.4155 C54.6525843,15.5231672 54.8948318,15.607083 55.1925,15.66725 C55.4901682,15.727417 55.8543312,15.7575 56.285,15.7575 C56.7220022,15.7575 57.0988318,15.7242503 57.4155,15.65775 C57.7321683,15.5912497 57.9934156,15.4994173 58.19925,15.38225 C58.4050844,15.2650827 58.5554995,15.1257508 58.6505,14.96425 C58.7455005,14.8027492 58.793,14.6270009 58.793,14.437 Z M56.2185,8.889 C56.5098348,8.889 56.7631656,8.84941706 56.9785,8.77025 C57.1938344,8.69108294 57.3727493,8.58183403 57.51525,8.4425 C57.6577507,8.30316597 57.7654163,8.13533431 57.83825,7.939 C57.9110837,7.74266568 57.9475,7.5273345 57.9475,7.293 C57.9475,6.81166426 57.8034181,6.43008474 57.51525,6.14825 C57.2270819,5.86641526 56.7948362,5.7255 56.2185,5.7255 C55.6421638,5.7255 55.2099181,5.86641526 54.92175,6.14825 C54.6335819,6.43008474 54.4895,6.81166426 54.4895,7.293 C54.4895,7.52100114 54.5259163,7.73316568 54.59875,7.9295 C54.6715837,8.12583431 54.7792493,8.29524929 54.92175,8.43775 C55.0642507,8.58025071 55.2447489,8.69108294 55.46325,8.77025 C55.6817511,8.84941706 55.9334986,8.889 56.2185,8.889 Z M66.7065,4.101 C67.3208364,4.101 67.8860808,4.19916568 68.40225,4.3955 C68.9184192,4.59183431 69.3633315,4.87841478 69.737,5.25525 C70.1106685,5.63208522 70.401999,6.09441393 70.611,6.64225 C70.820001,7.19008607 70.9245,7.81549648 70.9245,8.5185 C70.9245,8.69583422 70.9165834,8.84308275 70.90075,8.96025 C70.8849166,9.07741725 70.8564169,9.16924967 70.81525,9.23575 C70.7740831,9.30225033 70.718667,9.34974986 70.649,9.37825 C70.579333,9.40675014 70.4906672,9.421 70.383,9.421 L64.36,9.421 C64.429667,10.4216717 64.698831,11.156331 65.1675,11.625 C65.636169,12.093669 66.2568295,12.328 67.0295,12.328 C67.4095019,12.328 67.7372486,12.2836671 68.01275,12.195 C68.2882514,12.1063329 68.5289156,12.0081672 68.73475,11.9005 C68.9405844,11.7928328 69.1210826,11.6946671 69.27625,11.606 C69.4314174,11.5173329 69.5818326,11.473 69.7275,11.473 C69.8225005,11.473 69.904833,11.4919998 69.9745,11.53 C70.044167,11.5680002 70.1043331,11.621833 70.155,11.6915 L70.839,12.5465 C70.579332,12.8505015 70.2880016,13.1054156 69.965,13.31125 C69.6419984,13.5170844 69.3047518,13.6817494 68.95325,13.80525 C68.6017482,13.9287506 68.2439185,14.0158331 67.87975,14.0665 C67.5155815,14.1171669 67.1625017,14.1425 66.8205,14.1425 C66.1428299,14.1425 65.5126696,14.0300845 64.93,13.80525 C64.3473304,13.5804155 63.8406688,13.2479189 63.41,12.80775 C62.9793312,12.3675811 62.6405012,11.8229199 62.3935,11.17375 C62.1464988,10.5245801 62.023,9.77250427 62.023,8.9175 C62.023,8.25249667 62.1306656,7.62708626 62.346,7.04125 C62.5613344,6.45541374 62.8700813,5.9455855 63.27225,5.51175 C63.6744187,5.0779145 64.1652471,4.7343346 64.74475,4.481 C65.3242529,4.2276654 65.978163,4.101 66.7065,4.101 Z M66.754,5.7825 C66.0699966,5.7825 65.5348353,5.97566473 65.1485,6.362 C64.7621647,6.74833526 64.5151672,7.29616312 64.4075,8.0055 L68.8155,8.0055 C68.8155,7.70149848 68.7743337,7.41491801 68.692,7.14575 C68.6096663,6.87658199 68.4830009,6.64066768 68.312,6.438 C68.1409991,6.23533232 67.925668,6.07541725 67.666,5.95825 C67.406332,5.84108275 67.1023351,5.7825 66.754,5.7825 Z M72.834,14 L72.834,4.253 L74.2685,4.253 C74.5725015,4.253 74.7719995,4.39549857 74.867,4.6805 L75.0285,5.45 C75.2248343,5.24733232 75.4322489,5.06366749 75.65075,4.899 C75.8692511,4.73433251 76.1004154,4.59183393 76.34425,4.4715 C76.5880846,4.35116606 76.8493319,4.25933365 77.128,4.196 C77.4066681,4.13266635 77.710665,4.101 78.04,4.101 C78.5720027,4.101 79.0438313,4.1912491 79.4555,4.37175 C79.8671687,4.5522509 80.2107486,4.8055817 80.48625,5.13175 C80.7617514,5.4579183 80.9707493,5.8474144 81.11325,6.30025 C81.2557507,6.7530856 81.327,7.25183061 81.327,7.7965 L81.327,14 L78.9805,14 L78.9805,7.7965 C78.9805,7.20116369 78.8427514,6.7404183 78.56725,6.41425 C78.2917486,6.0880817 77.8785028,5.925 77.3275,5.925 C76.9221646,5.925 76.5421684,6.01683241 76.1875,6.2005 C75.8328316,6.38416758 75.4971682,6.63433175 75.1805,6.951 L75.1805,14 L72.834,14 Z M90.485,6.3145 C90.415333,6.40316711 90.3472503,6.47283308 90.28075,6.5235 C90.2142497,6.57416692 90.1176673,6.5995 89.991,6.5995 C89.8706661,6.5995 89.7535006,6.5630837 89.6395,6.49025 C89.5254994,6.4174163 89.3893341,6.33508379 89.231,6.24325 C89.0726659,6.15141621 88.8842511,6.0690837 88.66575,5.99625 C88.4472489,5.9234163 88.1765016,5.887 87.8535,5.887 C87.4418313,5.887 87.0808349,5.96141592 86.7705,6.11025 C86.4601651,6.25908408 86.2020844,6.47283194 85.99625,6.7515 C85.7904156,7.03016806 85.6368338,7.36741469 85.5355,7.76325 C85.4341662,8.15908531 85.3835,8.60716416 85.3835,9.1075 C85.3835,9.62683593 85.4389161,10.0891646 85.54975,10.4945 C85.6605839,10.8998354 85.820499,11.2402486 86.0295,11.51575 C86.238501,11.7912514 86.4918318,12.0002493 86.7895,12.14275 C87.0871682,12.2852507 87.4228315,12.3565 87.7965,12.3565 C88.1701685,12.3565 88.4725822,12.3105838 88.70375,12.21875 C88.9349178,12.1269162 89.1296659,12.0255839 89.288,11.91475 C89.4463341,11.8039161 89.5840827,11.7025838 89.70125,11.61075 C89.8184173,11.5189162 89.9498326,11.473 90.0955,11.473 C90.285501,11.473 90.4279995,11.5458326 90.523,11.6915 L91.1975,12.5465 C90.937832,12.8505015 90.6560015,13.1054156 90.352,13.31125 C90.0479985,13.5170844 89.7329183,13.6817494 89.40675,13.80525 C89.0805817,13.9287506 88.7433351,14.0158331 88.395,14.0665 C88.0466649,14.1171669 87.7015017,14.1425 87.3595,14.1425 C86.7578303,14.1425 86.1910027,14.0300845 85.659,13.80525 C85.1269973,13.5804155 84.6630853,13.2526688 84.26725,12.822 C83.8714147,12.3913312 83.5579178,11.8640865 83.32675,11.24025 C83.0955822,10.6164135 82.98,9.90550399 82.98,9.1075 C82.98,8.39182975 83.0829156,7.72841972 83.28875,7.11725 C83.4945844,6.50608028 83.796998,5.97725223 84.196,5.53075 C84.595002,5.08424777 85.0889971,4.7343346 85.678,4.481 C86.2670029,4.2276654 86.9446628,4.101 87.711,4.101 C88.439337,4.101 89.0774139,4.21816549 89.62525,4.4525 C90.1730861,4.6868345 90.6654978,5.02249781 91.1025,5.4595 L90.485,6.3145 Z M96.1565,16.679 C96.086833,16.8436675 95.9965839,16.9687496 95.88575,17.05425 C95.7749161,17.1397504 95.6055011,17.1825 95.3775,17.1825 L93.6295,17.1825 L95.4535,13.278 L91.511,4.253 L93.563,4.253 C93.753001,4.253 93.8986662,4.29733289 94,4.386 C94.1013338,4.47466711 94.1773331,4.57599943 94.228,4.69 L96.3085,9.744 C96.378167,9.90866749 96.4383331,10.0796658 96.489,10.257 C96.5396669,10.4343342 96.5839998,10.6116658 96.622,10.789 C96.6726669,10.6053324 96.728083,10.4280009 96.78825,10.257 C96.848417,10.0859991 96.913333,9.91183422 96.983,9.7345 L98.94,4.69 C98.9906669,4.5633327 99.0745827,4.45883374 99.19175,4.3765 C99.3089173,4.29416625 99.4403326,4.253 99.586,4.253 L101.467,4.253 L96.1565,16.679 Z" id="Agency" fill="#111111"></path>
                <path d="M5.916,11.9385 C6.41000247,11.9385 6.85174805,11.8561675 7.24125,11.6915 C7.63075195,11.5268325 7.96008199,11.2956682 8.22925,10.998 C8.49841801,10.7003318 8.70424929,10.3393355 8.84675,9.915 C8.98925071,9.49066454 9.0605,9.01566929 9.0605,8.49 L9.0605,0.263 L11.616,0.263 L11.616,8.49 C11.616,9.30700408 11.4845846,10.0622465 11.22175,10.75575 C10.9589154,11.4492535 10.5805025,12.0477475 10.0865,12.55125 C9.59249753,13.0547525 8.99400352,13.4474153 8.291,13.72925 C7.58799648,14.0110847 6.79633773,14.152 5.916,14.152 C5.03566227,14.152 4.24400352,14.0110847 3.541,13.72925 C2.83799648,13.4474153 2.24108579,13.0547525 1.75025,12.55125 C1.25941421,12.0477475 0.882584648,11.4492535 0.61975,10.75575 C0.356915352,10.0622465 0.2255,9.30700408 0.2255,8.49 L0.2255,0.263 L2.781,0.263 L2.781,8.4805 C2.781,9.00616929 2.85224929,9.48116454 2.99475,9.9055 C3.13725071,10.3298355 3.34149867,10.6924152 3.6075,10.99325 C3.87350133,11.2940848 4.20124805,11.5268325 4.59075,11.6915 C4.98025195,11.8561675 5.42199753,11.9385 5.916,11.9385 Z M14.086,14 L14.086,4.253 L15.5205,4.253 C15.8245015,4.253 16.0239995,4.39549858 16.119,4.6805 L16.2805,5.45 C16.4768343,5.24733232 16.6842489,5.06366749 16.90275,4.899 C17.1212511,4.73433251 17.3524154,4.59183394 17.59625,4.4715 C17.8400846,4.35116607 18.1013319,4.25933365 18.38,4.196 C18.6586681,4.13266635 18.962665,4.101 19.292,4.101 C19.8240027,4.101 20.2958313,4.1912491 20.7075,4.37175 C21.1191687,4.5522509 21.4627486,4.8055817 21.73825,5.13175 C22.0137514,5.4579183 22.2227493,5.8474144 22.36525,6.30025 C22.5077507,6.7530856 22.579,7.25183061 22.579,7.7965 L22.579,14 L20.2325,14 L20.2325,7.7965 C20.2325,7.20116369 20.0947514,6.7404183 19.81925,6.41425 C19.5437486,6.0880817 19.1305028,5.925 18.5795,5.925 C18.1741646,5.925 17.7941684,6.01683242 17.4395,6.2005 C17.0848316,6.38416759 16.7491683,6.63433175 16.4325,6.951 L16.4325,14 L14.086,14 Z M29.0485,4.101 C29.776837,4.101 30.4370804,4.2181655 31.02925,4.4525 C31.6214196,4.68683451 32.1264979,5.01933118 32.5445,5.45 C32.9625021,5.88066882 33.2854989,6.40633023 33.5135,7.027 C33.7415011,7.64766977 33.8555,8.34116284 33.8555,9.1075 C33.8555,9.88017053 33.7415011,10.5768302 33.5135,11.1975 C33.2854989,11.8181698 32.9625021,12.3469978 32.5445,12.784 C32.1264979,13.2210022 31.6214196,13.5566655 31.02925,13.791 C30.4370804,14.0253345 29.776837,14.1425 29.0485,14.1425 C28.320163,14.1425 27.6583363,14.0253345 27.063,13.791 C26.4676637,13.5566655 25.9594188,13.2210022 25.53825,12.784 C25.1170812,12.3469978 24.7909178,11.8181698 24.55975,11.1975 C24.3285822,10.5768302 24.213,9.88017053 24.213,9.1075 C24.213,8.34116284 24.3285822,7.64766977 24.55975,7.027 C24.7909178,6.40633023 25.1170812,5.88066882 25.53825,5.45 C25.9594188,5.01933118 26.4676637,4.68683451 27.063,4.4525 C27.6583363,4.2181655 28.320163,4.101 29.0485,4.101 Z M29.0485,12.3375 C29.8591707,12.3375 30.4592481,12.0651694 30.84875,11.5205 C31.2382519,10.9758306 31.433,10.1778386 31.433,9.1265 C31.433,8.07516141 31.2382519,7.27400275 30.84875,6.723 C30.4592481,6.17199724 29.8591707,5.8965 29.0485,5.8965 C28.2251625,5.8965 27.6171686,6.17358056 27.2245,6.72775 C26.8318314,7.28191944 26.6355,8.08149477 26.6355,9.1265 C26.6355,10.1715052 26.8318314,10.9679139 27.2245,11.51575 C27.6171686,12.0635861 28.2251625,12.3375 29.0485,12.3375 Z" id="Uno" fill="#FFB567"></path>
            </g>
        </g>
    </g>
</svg>